<?xml version="1.0" standalone="no"?>
<!DOCTYPE svg PUBLIC "-//W3C//DTD SVG 20010904//EN"
 "http://www.w3.org/TR/2001/REC-SVG-20010904/DTD/svg10.dtd">
<svg version="1.0" xmlns="http://www.w3.org/2000/svg"
 width="607.000000pt" height="607.000000pt" viewBox="0 0 607.000000 607.000000"
 preserveAspectRatio="xMidYMid meet">
<metadata>
Created by potrace 1.14, written by Peter Selinger 2001-2017
</metadata>
<g transform="translate(0.000000,607.000000) scale(0.100000,-0.100000)"
fill="#000000" stroke="none">
<path d="M1910 5385 l0 -155 -155 0 -155 0 0 -160 0 -160 -155 0 -155 0 0
-465 0 -465 -470 0 -470 0 0 -470 0 -470 155 0 155 0 0 -155 0 -154 158 -3
157 -3 3 -152 3 -152 152 -3 152 -3 3 -312 2 -313 155 0 155 0 0 -155 0 -155
155 0 155 0 0 -155 0 -154 158 -3 157 -3 0 -155 0 -155 -157 -3 -158 -3 0
-153 0 -153 1405 1 1405 1 1 125 c0 69 2 137 3 153 l2 27 -158 0 -159 0 3 157
3 158 155 3 155 2 -2 153 -2 152 -1400 3 -1401 2 0 155 0 155 -160 0 -160 0 0
310 0 310 625 0 625 0 0 -155 0 -155 155 0 155 0 0 -155 0 -155 630 0 631 0
-3 152 -3 153 -625 5 -625 5 3 305 c2 168 5 307 7 309 2 2 282 4 622 5 l618 1
-4 -312 -3 -313 163 0 162 0 -6 242 c-4 133 -7 344 -7 470 l0 228 -620 0 -620
0 -2 313 -3 312 -151 3 -151 3 -6 226 c-4 124 -7 334 -7 465 l0 238 -155 0
-155 0 0 -310 0 -310 -310 0 -310 0 0 309 c0 279 -2 310 -16 313 -9 2 -81 2
-160 0 l-144 -3 0 -310 0 -309 -155 0 -155 0 0 465 0 465 155 0 154 0 3 158 3
157 777 3 777 2 3 -157 3 -158 159 -3 159 -3 -4 -777 -4 -777 470 0 470 0 2
153 2 153 153 2 153 2 0 155 0 155 -312 3 -313 2 0 -160 0 -161 -152 3 -153 3
-3 623 -2 622 -155 0 -154 0 -3 158 -3 157 -157 3 -158 3 0 154 0 155 -780 0
-780 0 0 -155z m-1213 -1731 c-3 -3 -12 -4 -19 -1 -8 3 -5 6 6 6 11 1 17 -2
13 -5z m631 -1 c-109 -2 -287 -2 -396 0 -108 1 -19 2 198 2 217 0 306 -1 198
-2z m2147 -2643 l0 -155 -157 -3 -158 -3 0 154 c0 85 3 157 7 161 4 3 75 5
157 4 l151 -3 0 -155z"/>
<path d="M5040 3192 c0 -258 -3 -679 -7 -935 l-6 -467 -154 0 -153 0 0 -155 0
-155 160 0 160 0 0 155 0 155 155 0 155 0 0 935 0 935 -155 0 -155 0 0 -468z"/>
</g>
</svg>
